<svg width="120" height="120" viewBox="0 0 120 120" xmlns="http://www.w3.org/2000/svg">

  <!-- calendar body -->
  <rect x="20" y="30" width="80" height="70" rx="10" fill="#F4F4F2" stroke="#3A3A3A" stroke-width="3"/>

  <!-- top header -->
  <rect x="20" y="30" width="80" height="25" rx="10" fill="#E65A4F" stroke="#3A3A3A" stroke-width="3"/>

  <!-- binder rings -->
  <rect x="38" y="18" width="10" height="20" rx="5" fill="#E0E0E0" stroke="#3A3A3A" stroke-width="3"/>
  <rect x="72" y="18" width="10" height="20" rx="5" fill="#E0E0E0" stroke="#3A3A3A" stroke-width="3"/>

  <!-- calendar grid -->
  <rect x="36" y="60" width="10" height="10" rx="2" fill="#C8C6C3"/>
  <rect x="52" y="60" width="10" height="10" rx="2" fill="#C8C6C3"/>
  <rect x="68" y="60" width="10" height="10" rx="2" fill="#C8C6C3"/>
  <rect x="84" y="60" width="10" height="10" rx="2" fill="#C8C6C3"/>

  <rect x="36" y="76" width="10" height="10" rx="2" fill="#C8C6C3"/>
  <rect x="52" y="76" width="10" height="10" rx="2" fill="#C8C6C3"/>
  <rect x="68" y="76" width="10" height="10" rx="2" fill="#C8C6C3"/>
  <rect x="84" y="76" width="10" height="10" rx="2" fill="#C8C6C3"/>

</svg>